<!DOCTYPE svg PUBLIC "-//W3C//DTD SVG 1.1//EN" "http://www.w3.org/Graphics/SVG/1.1/DTD/svg11.dtd">
<!-- Uploaded to: SVG Repo, www.svgrepo.com, Transformed by: SVG Repo Mixer Tools -->
<svg fill="white" width="800px" height="800px" viewBox="0 0 24.00 24.00" xmlns="http://www.w3.org/2000/svg" stroke="white" stroke-width="0.00024000000000000003">
<g id="SVGRepo_bgCarrier" stroke-width="0"/>
<g id="SVGRepo_tracerCarrier" stroke-linecap="round" stroke-linejoin="round"/>
<g id="SVGRepo_iconCarrier">
<path d="m12.954 11.616 2.957-2.957L6.36 3.291c-.633-.342-1.226-.39-1.746-.016l8.34 8.341zm3.461 3.462 3.074-1.729c.6-.336.929-.812.929-1.34 0-.527-.329-1.004-.928-1.34l-2.783-1.563-3.133 3.132 2.841 2.84zM4.1 4.002c-.064.197-.1.417-.1.658v14.705c0 .381.084.709.236.97l8.097-8.098L4.1 4.002zm8.854 8.855L4.902 20.91c.154.059.32.09.495.09.312 0 .637-.092.968-.276l9.255-5.197-2.666-2.67z"/>
</g>
</svg>